<svg xmlns="http://www.w3.org/2000/svg" xmlns:xlink="http://www.w3.org/1999/xlink" width="140" zoomAndPan="magnify" viewBox="0 0 104.88 112.499997" height="150" preserveAspectRatio="xMidYMid meet" version="1.0"><defs><g/><clipPath id="3f22795d9a"><path d="M 22 47 L 51 47 L 51 67.925781 L 22 67.925781 Z M 22 47 " clip-rule="nonzero"/></clipPath><clipPath id="1e8a92732d"><path d="M 24 49 L 50 49 L 50 67.925781 L 24 67.925781 Z M 24 49 " clip-rule="nonzero"/></clipPath><clipPath id="89baf79674"><path d="M 46 44.03125 L 63.746094 44.03125 L 63.746094 51 L 46 51 Z M 46 44.03125 " clip-rule="nonzero"/></clipPath></defs><g clip-path="url(#3f22795d9a)"><path fill="#38b6ff" d="M 24.921875 60.929688 C 24.199219 61.832031 23.628906 63.460938 24.085938 64.796875 C 24.371094 65.632812 25.09375 66.21875 26.042969 66.628906 C 26.820312 67.214844 28 67.707031 29.71875 67.902344 C 24.175781 67.808594 22.347656 65.632812 22.164062 64.089844 C 21.933594 62.109375 23.019531 60.195312 24.910156 58.410156 C 28.859375 54.691406 36.34375 51.542969 42.824219 49.609375 C 45.605469 48.773438 48.214844 48.167969 50.265625 47.824219 C 47.597656 48.648438 45.160156 49.484375 42.925781 50.332031 C 32.808594 54.1875 27.152344 58.125 24.921875 60.929688 Z M 24.921875 60.929688 " fill-opacity="1" fill-rule="nonzero"/></g><g clip-path="url(#1e8a92732d)"><path fill="#ffbd59" d="M 27.222656 61.800781 C 26.59375 62.636719 26.125 64.132812 26.558594 65.324219 C 27.085938 66.734375 29.019531 67.328125 31.089844 67.535156 C 33.472656 67.625 35.542969 67.398438 35.542969 67.398438 C 35.039062 67.488281 34.546875 67.558594 34.066406 67.625 C 32.417969 67.84375 30.976562 67.933594 29.730469 67.910156 C 28 67.71875 26.820312 67.226562 26.054688 66.640625 C 25.265625 66.046875 24.898438 65.347656 24.808594 64.742188 C 24.554688 62.957031 25.480469 61.191406 27.152344 59.523438 C 30.644531 56.042969 37.363281 52.996094 43.191406 51.074219 C 45.695312 50.238281 48.042969 49.621094 49.886719 49.265625 C 47.480469 50.078125 45.296875 50.902344 43.292969 51.726562 C 34.191406 55.46875 29.167969 59.191406 27.222656 61.800781 Z M 27.222656 61.800781 " fill-opacity="1" fill-rule="nonzero"/></g><g clip-path="url(#89baf79674)"><path fill="#38b6ff" d="M 63.65625 45.167969 C 63.4375 44.972656 62.957031 44.664062 61.996094 44.574219 C 61.378906 44.515625 60.761719 44.585938 60.164062 44.746094 L 56.160156 45.832031 L 48.980469 44.058594 L 47 44.664062 L 52.4375 46.886719 L 49.324219 48.007812 L 47.632812 47.445312 L 46.714844 47.675781 L 47.859375 48.613281 C 47.859375 48.613281 45.835938 49.425781 46.234375 50.019531 C 46.714844 50.71875 61.628906 46.039062 63.609375 45.417969 C 63.714844 45.375 63.746094 45.238281 63.65625 45.167969 Z M 63.65625 45.167969 " fill-opacity="1" fill-rule="nonzero"/></g><g fill="#ffffff" fill-opacity="1"><g transform="translate(33.017137, 64.448472)"><g><path d="M 5.40625 -5.640625 L 3.296875 -5.640625 L 3.296875 0 L 2.1875 0 L 2.1875 -5.640625 L 0.078125 -5.640625 L 0.078125 -6.640625 L 5.40625 -6.640625 Z M 5.40625 -5.640625 "/></g></g></g><g fill="#ffffff" fill-opacity="1"><g transform="translate(38.343018, 64.448472)"><g><path d="M 5.078125 0 L 3.875 -2.015625 C 3.8125 -2.003906 3.707031 -2 3.5625 -2 L 1.984375 -2 L 1.984375 0 L 0.875 0 L 0.875 -6.640625 L 3.5625 -6.640625 C 4.414062 -6.640625 5.070312 -6.441406 5.53125 -6.046875 C 6 -5.648438 6.234375 -5.09375 6.234375 -4.375 C 6.234375 -3.84375 6.113281 -3.390625 5.875 -3.015625 C 5.644531 -2.648438 5.304688 -2.382812 4.859375 -2.21875 L 6.359375 0 Z M 1.984375 -3 L 3.5625 -3 C 4.632812 -3 5.171875 -3.445312 5.171875 -4.34375 C 5.171875 -5.207031 4.632812 -5.640625 3.5625 -5.640625 L 1.984375 -5.640625 Z M 1.984375 -3 "/></g></g></g><g fill="#ffffff" fill-opacity="1"><g transform="translate(45.033557, 64.448472)"><g><path d="M 5.15625 -1.5 L 1.8125 -1.5 L 1.171875 0 L 0.015625 0 L 2.9375 -6.640625 L 4.09375 -6.640625 L 6.984375 0 L 5.796875 0 Z M 4.734375 -2.5 L 3.484375 -5.4375 L 2.234375 -2.5 Z M 4.734375 -2.5 "/></g></g></g><g fill="#ffbd59" fill-opacity="1"><g transform="translate(51.869441, 64.448472)"><g><path d="M 3.828125 0 L 2.671875 0 L 0.03125 -6.640625 L 1.234375 -6.640625 L 3.28125 -1.25 L 5.34375 -6.640625 L 6.515625 -6.640625 Z M 3.828125 0 "/></g></g></g><g fill="#ffbd59" fill-opacity="1"><g transform="translate(58.247245, 64.448472)"><g><path d="M 5.609375 -5.640625 L 1.984375 -5.640625 L 1.984375 -3.84375 L 5.234375 -3.84375 L 5.234375 -2.828125 L 1.984375 -2.828125 L 1.984375 -1 L 5.734375 -1 L 5.734375 0 L 0.875 0 L 0.875 -6.640625 L 5.609375 -6.640625 Z M 5.609375 -5.640625 "/></g></g></g><g fill="#ffbd59" fill-opacity="1"><g transform="translate(64.302838, 64.448472)"><g><path d="M 5.078125 0 L 3.875 -2.015625 C 3.8125 -2.003906 3.707031 -2 3.5625 -2 L 1.984375 -2 L 1.984375 0 L 0.875 0 L 0.875 -6.640625 L 3.5625 -6.640625 C 4.414062 -6.640625 5.070312 -6.441406 5.53125 -6.046875 C 6 -5.648438 6.234375 -5.09375 6.234375 -4.375 C 6.234375 -3.84375 6.113281 -3.390625 5.875 -3.015625 C 5.644531 -2.648438 5.304688 -2.382812 4.859375 -2.21875 L 6.359375 0 Z M 1.984375 -3 L 3.5625 -3 C 4.632812 -3 5.171875 -3.445312 5.171875 -4.34375 C 5.171875 -5.207031 4.632812 -5.640625 3.5625 -5.640625 L 1.984375 -5.640625 Z M 1.984375 -3 "/></g></g></g><g fill="#ffbd59" fill-opacity="1"><g transform="translate(70.993378, 64.448472)"><g><path d="M 3.046875 -6.6875 C 3.910156 -6.6875 4.6875 -6.457031 5.375 -6 L 4.90625 -5.015625 C 4.226562 -5.429688 3.582031 -5.640625 2.96875 -5.640625 C 2.632812 -5.640625 2.367188 -5.578125 2.171875 -5.453125 C 1.984375 -5.328125 1.890625 -5.15625 1.890625 -4.9375 C 1.890625 -4.71875 1.976562 -4.53125 2.15625 -4.375 C 2.332031 -4.21875 2.550781 -4.101562 2.8125 -4.03125 C 3.082031 -3.957031 3.367188 -3.863281 3.671875 -3.75 C 3.984375 -3.644531 4.269531 -3.53125 4.53125 -3.40625 C 4.800781 -3.28125 5.023438 -3.085938 5.203125 -2.828125 C 5.378906 -2.566406 5.46875 -2.25 5.46875 -1.875 C 5.46875 -1.289062 5.234375 -0.828125 4.765625 -0.484375 C 4.296875 -0.140625 3.691406 0.03125 2.953125 0.03125 C 2.453125 0.03125 1.960938 -0.0625 1.484375 -0.25 C 1.015625 -0.4375 0.601562 -0.691406 0.25 -1.015625 L 0.734375 -1.984375 C 1.066406 -1.671875 1.429688 -1.429688 1.828125 -1.265625 C 2.234375 -1.097656 2.617188 -1.015625 2.984375 -1.015625 C 3.367188 -1.015625 3.671875 -1.082031 3.890625 -1.21875 C 4.109375 -1.363281 4.21875 -1.566406 4.21875 -1.828125 C 4.21875 -2.046875 4.128906 -2.234375 3.953125 -2.390625 C 3.773438 -2.546875 3.550781 -2.660156 3.28125 -2.734375 C 3.019531 -2.804688 2.734375 -2.894531 2.421875 -3 C 2.117188 -3.101562 1.832031 -3.210938 1.5625 -3.328125 C 1.300781 -3.453125 1.082031 -3.640625 0.90625 -3.890625 C 0.726562 -4.148438 0.640625 -4.46875 0.640625 -4.84375 C 0.640625 -5.40625 0.859375 -5.851562 1.296875 -6.1875 C 1.742188 -6.519531 2.328125 -6.6875 3.046875 -6.6875 Z M 3.046875 -6.6875 "/></g></g></g><g fill="#ffbd59" fill-opacity="1"><g transform="translate(76.726762, 64.448472)"><g><path d="M 5.609375 -5.640625 L 1.984375 -5.640625 L 1.984375 -3.84375 L 5.234375 -3.84375 L 5.234375 -2.828125 L 1.984375 -2.828125 L 1.984375 -1 L 5.734375 -1 L 5.734375 0 L 0.875 0 L 0.875 -6.640625 L 5.609375 -6.640625 Z M 5.609375 -5.640625 "/></g></g></g><g fill="#402978" fill-opacity="1"><g transform="translate(53.32984, 67.17594)"><g><path d="M 1.15625 -1.890625 L 1.15625 -1.703125 L 0.6875 -1.703125 L 0.6875 0 L 0.484375 0 L 0.484375 -1.703125 L 0.03125 -1.703125 L 0.03125 -1.890625 Z M 1.15625 -1.890625 "/></g></g></g><g fill="#402978" fill-opacity="1"><g transform="translate(54.509008, 67.17594)"><g><path d="M 0.09375 -0.953125 C 0.09375 -1.117188 0.132812 -1.273438 0.21875 -1.421875 C 0.3125 -1.578125 0.429688 -1.695312 0.578125 -1.78125 C 0.734375 -1.875 0.898438 -1.921875 1.078125 -1.921875 C 1.253906 -1.921875 1.414062 -1.878906 1.5625 -1.796875 C 1.71875 -1.710938 1.84375 -1.59375 1.9375 -1.4375 C 2.03125 -1.28125 2.078125 -1.117188 2.078125 -0.953125 C 2.078125 -0.773438 2.03125 -0.609375 1.9375 -0.453125 C 1.851562 -0.304688 1.734375 -0.1875 1.578125 -0.09375 C 1.429688 -0.0078125 1.265625 0.03125 1.078125 0.03125 C 0.898438 0.03125 0.734375 -0.0078125 0.578125 -0.09375 C 0.429688 -0.1875 0.3125 -0.304688 0.21875 -0.453125 C 0.132812 -0.609375 0.09375 -0.773438 0.09375 -0.953125 Z M 1.078125 -1.734375 C 0.941406 -1.734375 0.8125 -1.695312 0.6875 -1.625 C 0.570312 -1.550781 0.476562 -1.453125 0.40625 -1.328125 C 0.34375 -1.210938 0.3125 -1.085938 0.3125 -0.953125 C 0.3125 -0.804688 0.34375 -0.671875 0.40625 -0.546875 C 0.476562 -0.429688 0.570312 -0.335938 0.6875 -0.265625 C 0.8125 -0.191406 0.941406 -0.15625 1.078125 -0.15625 C 1.222656 -0.15625 1.351562 -0.191406 1.46875 -0.265625 C 1.59375 -0.335938 1.6875 -0.429688 1.75 -0.546875 C 1.820312 -0.671875 1.859375 -0.804688 1.859375 -0.953125 C 1.859375 -1.085938 1.820312 -1.21875 1.75 -1.34375 C 1.6875 -1.46875 1.59375 -1.5625 1.46875 -1.625 C 1.351562 -1.695312 1.222656 -1.734375 1.078125 -1.734375 Z M 1.078125 -1.734375 "/></g></g></g><g fill="#402978" fill-opacity="1"><g transform="translate(56.671651, 67.17594)"><g><path d="M 0.390625 -1.890625 L 0.390625 -0.734375 C 0.390625 -0.566406 0.40625 -0.453125 0.4375 -0.390625 C 0.476562 -0.328125 0.535156 -0.269531 0.609375 -0.21875 C 0.691406 -0.175781 0.773438 -0.15625 0.859375 -0.15625 C 0.941406 -0.15625 1.015625 -0.171875 1.078125 -0.203125 C 1.148438 -0.242188 1.203125 -0.285156 1.234375 -0.328125 C 1.265625 -0.367188 1.285156 -0.414062 1.296875 -0.46875 C 1.316406 -0.53125 1.328125 -0.617188 1.328125 -0.734375 L 1.328125 -1.890625 L 1.546875 -1.890625 L 1.546875 -0.6875 C 1.546875 -0.5625 1.53125 -0.457031 1.5 -0.375 C 1.476562 -0.300781 1.429688 -0.234375 1.359375 -0.171875 C 1.296875 -0.109375 1.21875 -0.0546875 1.125 -0.015625 C 1.039062 0.015625 0.953125 0.03125 0.859375 0.03125 C 0.742188 0.03125 0.632812 0.00390625 0.53125 -0.046875 C 0.425781 -0.109375 0.34375 -0.1875 0.28125 -0.28125 C 0.21875 -0.375 0.1875 -0.507812 0.1875 -0.6875 L 0.1875 -1.890625 Z M 0.390625 -1.890625 "/></g></g></g><g fill="#402978" fill-opacity="1"><g transform="translate(58.390226, 67.17594)"><g><path d="M 0.484375 -1.890625 C 0.929688 -1.890625 1.15625 -1.71875 1.15625 -1.375 C 1.15625 -1.226562 1.113281 -1.109375 1.03125 -1.015625 C 0.945312 -0.921875 0.832031 -0.863281 0.6875 -0.84375 L 1.28125 0 L 1.03125 0 L 0.453125 -0.828125 L 0.40625 -0.828125 L 0.40625 0 L 0.1875 0 L 0.1875 -1.890625 Z M 0.40625 -1.015625 L 0.5 -1.015625 C 0.644531 -1.015625 0.753906 -1.039062 0.828125 -1.09375 C 0.910156 -1.15625 0.953125 -1.242188 0.953125 -1.359375 C 0.953125 -1.484375 0.910156 -1.570312 0.828125 -1.625 C 0.753906 -1.675781 0.648438 -1.703125 0.515625 -1.703125 L 0.40625 -1.703125 Z M 0.40625 -1.015625 "/></g></g></g><g fill="#402978" fill-opacity="1"><g transform="translate(59.750032, 67.17594)"><g/></g></g><g fill="#402978" fill-opacity="1"><g transform="translate(60.522763, 67.17594)"><g><path d="M 0.875 -1.078125 L 1.28125 -0.578125 L 1.5 -0.828125 L 1.640625 -0.703125 L 1.40625 -0.421875 L 1.734375 0 L 1.46875 0 L 1.25 -0.265625 C 1.132812 -0.160156 1.03125 -0.0820312 0.9375 -0.03125 C 0.84375 0.0078125 0.75 0.03125 0.65625 0.03125 C 0.550781 0.03125 0.457031 0.0078125 0.375 -0.03125 C 0.289062 -0.0820312 0.222656 -0.144531 0.171875 -0.21875 C 0.117188 -0.300781 0.09375 -0.394531 0.09375 -0.5 C 0.09375 -0.582031 0.109375 -0.65625 0.140625 -0.71875 C 0.179688 -0.78125 0.226562 -0.835938 0.28125 -0.890625 C 0.34375 -0.953125 0.445312 -1.03125 0.59375 -1.125 C 0.53125 -1.195312 0.476562 -1.265625 0.4375 -1.328125 C 0.40625 -1.390625 0.390625 -1.457031 0.390625 -1.53125 C 0.390625 -1.644531 0.429688 -1.738281 0.515625 -1.8125 C 0.597656 -1.882812 0.695312 -1.921875 0.8125 -1.921875 C 0.925781 -1.921875 1.019531 -1.882812 1.09375 -1.8125 C 1.175781 -1.75 1.21875 -1.664062 1.21875 -1.5625 C 1.21875 -1.46875 1.1875 -1.382812 1.125 -1.3125 C 1.070312 -1.238281 0.988281 -1.160156 0.875 -1.078125 Z M 0.765625 -1.234375 L 0.84375 -1.296875 C 0.914062 -1.347656 0.960938 -1.394531 0.984375 -1.4375 C 1.003906 -1.476562 1.015625 -1.519531 1.015625 -1.5625 C 1.015625 -1.613281 0.992188 -1.65625 0.953125 -1.6875 C 0.910156 -1.726562 0.863281 -1.75 0.8125 -1.75 C 0.75 -1.75 0.695312 -1.726562 0.65625 -1.6875 C 0.613281 -1.644531 0.59375 -1.597656 0.59375 -1.546875 C 0.59375 -1.484375 0.617188 -1.421875 0.671875 -1.359375 Z M 1.125 -0.421875 L 0.703125 -0.96875 C 0.640625 -0.925781 0.578125 -0.882812 0.515625 -0.84375 C 0.460938 -0.800781 0.410156 -0.75 0.359375 -0.6875 C 0.316406 -0.632812 0.296875 -0.570312 0.296875 -0.5 C 0.296875 -0.414062 0.332031 -0.335938 0.40625 -0.265625 C 0.476562 -0.191406 0.554688 -0.15625 0.640625 -0.15625 C 0.710938 -0.15625 0.785156 -0.175781 0.859375 -0.21875 C 0.929688 -0.257812 1.019531 -0.328125 1.125 -0.421875 Z M 1.125 -0.421875 "/></g></g></g><g fill="#402978" fill-opacity="1"><g transform="translate(62.266426, 67.17594)"><g/></g></g><g fill="#402978" fill-opacity="1"><g transform="translate(63.039158, 67.17594)"><g><path d="M 1.15625 -1.890625 L 1.15625 -1.703125 L 0.6875 -1.703125 L 0.6875 0 L 0.484375 0 L 0.484375 -1.703125 L 0.03125 -1.703125 L 0.03125 -1.890625 Z M 1.15625 -1.890625 "/></g></g></g><g fill="#402978" fill-opacity="1"><g transform="translate(64.218326, 67.17594)"><g><path d="M 0.484375 -1.890625 C 0.929688 -1.890625 1.15625 -1.71875 1.15625 -1.375 C 1.15625 -1.226562 1.113281 -1.109375 1.03125 -1.015625 C 0.945312 -0.921875 0.832031 -0.863281 0.6875 -0.84375 L 1.28125 0 L 1.03125 0 L 0.453125 -0.828125 L 0.40625 -0.828125 L 0.40625 0 L 0.1875 0 L 0.1875 -1.890625 Z M 0.40625 -1.015625 L 0.5 -1.015625 C 0.644531 -1.015625 0.753906 -1.039062 0.828125 -1.09375 C 0.910156 -1.15625 0.953125 -1.242188 0.953125 -1.359375 C 0.953125 -1.484375 0.910156 -1.570312 0.828125 -1.625 C 0.753906 -1.675781 0.648438 -1.703125 0.515625 -1.703125 L 0.40625 -1.703125 Z M 0.40625 -1.015625 "/></g></g></g><g fill="#402978" fill-opacity="1"><g transform="translate(65.578132, 67.17594)"><g><path d="M 0.890625 -1.984375 L 1.75 0 L 1.515625 0 L 1.28125 -0.53125 L 0.46875 -0.53125 L 0.25 0 L 0.015625 0 Z M 0.5625 -0.734375 L 1.203125 -0.734375 L 0.890625 -1.5 Z M 0.34375 -1.890625 Z M 0.34375 -1.890625 "/></g></g></g><g fill="#402978" fill-opacity="1"><g transform="translate(67.33183, 67.17594)"><g><path d="M 0.25 -1.890625 L 0.78125 -0.453125 L 1.328125 -1.890625 L 1.546875 -1.890625 L 0.78125 0.109375 L 0.015625 -1.890625 Z M 0.265625 0 Z M 0.265625 0 "/></g></g></g><g fill="#402978" fill-opacity="1"><g transform="translate(68.897363, 67.17594)"><g><path d="M 1.171875 -1.890625 L 1.171875 -1.703125 L 0.40625 -1.703125 L 0.40625 -1.140625 L 1.15625 -1.140625 L 1.15625 -0.9375 L 0.40625 -0.9375 L 0.40625 -0.203125 L 1.171875 -0.203125 L 1.171875 0 L 0.1875 0 L 0.1875 -1.890625 Z M 1.171875 -1.890625 "/></g></g></g><g fill="#402978" fill-opacity="1"><g transform="translate(70.237099, 67.17594)"><g><path d="M 0.40625 -1.890625 L 0.40625 -0.203125 L 0.921875 -0.203125 L 0.921875 0 L 0.1875 0 L 0.1875 -1.890625 Z M 0.40625 -1.890625 "/></g></g></g><g fill="#402978" fill-opacity="1"><g transform="translate(71.177924, 67.17594)"><g/></g></g><g fill="#402978" fill-opacity="1"><g transform="translate(71.950656, 67.17594)"><g><path d="M 0.890625 -1.984375 L 1.75 0 L 1.515625 0 L 1.28125 -0.53125 L 0.46875 -0.53125 L 0.25 0 L 0.015625 0 Z M 0.5625 -0.734375 L 1.203125 -0.734375 L 0.890625 -1.5 Z M 0.34375 -1.890625 Z M 0.34375 -1.890625 "/></g></g></g><g fill="#402978" fill-opacity="1"><g transform="translate(73.704355, 67.17594)"><g><path d="M 1.71875 -1.375 C 1.632812 -1.488281 1.539062 -1.578125 1.4375 -1.640625 C 1.332031 -1.703125 1.207031 -1.734375 1.0625 -1.734375 C 0.925781 -1.734375 0.796875 -1.695312 0.671875 -1.625 C 0.554688 -1.550781 0.460938 -1.453125 0.390625 -1.328125 C 0.328125 -1.210938 0.296875 -1.082031 0.296875 -0.9375 C 0.296875 -0.800781 0.332031 -0.671875 0.40625 -0.546875 C 0.476562 -0.429688 0.570312 -0.335938 0.6875 -0.265625 C 0.8125 -0.191406 0.929688 -0.15625 1.046875 -0.15625 C 1.160156 -0.15625 1.269531 -0.179688 1.375 -0.234375 C 1.476562 -0.285156 1.5625 -0.359375 1.625 -0.453125 C 1.695312 -0.546875 1.734375 -0.644531 1.734375 -0.75 L 1.171875 -0.75 L 1.171875 -0.953125 L 1.953125 -0.953125 L 1.953125 -0.84375 C 1.953125 -0.71875 1.929688 -0.601562 1.890625 -0.5 C 1.847656 -0.394531 1.78125 -0.300781 1.6875 -0.21875 C 1.601562 -0.132812 1.503906 -0.0703125 1.390625 -0.03125 C 1.285156 0.0078125 1.175781 0.03125 1.0625 0.03125 C 0.882812 0.03125 0.71875 -0.0078125 0.5625 -0.09375 C 0.414062 -0.1875 0.296875 -0.304688 0.203125 -0.453125 C 0.117188 -0.609375 0.078125 -0.769531 0.078125 -0.9375 C 0.078125 -1.113281 0.117188 -1.28125 0.203125 -1.4375 C 0.296875 -1.59375 0.421875 -1.710938 0.578125 -1.796875 C 0.734375 -1.878906 0.894531 -1.921875 1.0625 -1.921875 C 1.226562 -1.921875 1.378906 -1.882812 1.515625 -1.8125 C 1.648438 -1.75 1.769531 -1.648438 1.875 -1.515625 Z M 1.71875 -1.375 "/></g></g></g><g fill="#402978" fill-opacity="1"><g transform="translate(75.761626, 67.17594)"><g><path d="M 1.171875 -1.890625 L 1.171875 -1.703125 L 0.40625 -1.703125 L 0.40625 -1.140625 L 1.15625 -1.140625 L 1.15625 -0.9375 L 0.40625 -0.9375 L 0.40625 -0.203125 L 1.171875 -0.203125 L 1.171875 0 L 0.1875 0 L 0.1875 -1.890625 Z M 1.171875 -1.890625 "/></g></g></g><g fill="#402978" fill-opacity="1"><g transform="translate(77.101363, 67.17594)"><g><path d="M 0.203125 -1.984375 L 1.6875 -0.421875 L 1.6875 -1.890625 L 1.890625 -1.890625 L 1.890625 0.078125 L 0.421875 -1.46875 L 0.421875 0 L 0.203125 0 Z M 0.203125 -1.984375 "/></g></g></g><g fill="#402978" fill-opacity="1"><g transform="translate(79.193758, 67.17594)"><g><path d="M 1.640625 -1.484375 C 1.554688 -1.566406 1.460938 -1.628906 1.359375 -1.671875 C 1.265625 -1.710938 1.164062 -1.734375 1.0625 -1.734375 C 0.925781 -1.734375 0.796875 -1.695312 0.671875 -1.625 C 0.554688 -1.550781 0.460938 -1.453125 0.390625 -1.328125 C 0.328125 -1.210938 0.296875 -1.085938 0.296875 -0.953125 C 0.296875 -0.816406 0.328125 -0.6875 0.390625 -0.5625 C 0.460938 -0.4375 0.554688 -0.335938 0.671875 -0.265625 C 0.796875 -0.191406 0.925781 -0.15625 1.0625 -0.15625 C 1.164062 -0.15625 1.265625 -0.175781 1.359375 -0.21875 C 1.460938 -0.269531 1.554688 -0.335938 1.640625 -0.421875 L 1.640625 -0.15625 C 1.554688 -0.09375 1.460938 -0.046875 1.359375 -0.015625 C 1.265625 0.015625 1.171875 0.03125 1.078125 0.03125 C 0.898438 0.03125 0.734375 -0.0078125 0.578125 -0.09375 C 0.429688 -0.175781 0.3125 -0.289062 0.21875 -0.4375 C 0.125 -0.59375 0.078125 -0.757812 0.078125 -0.9375 C 0.078125 -1.113281 0.117188 -1.273438 0.203125 -1.421875 C 0.296875 -1.578125 0.421875 -1.695312 0.578125 -1.78125 C 0.734375 -1.875 0.898438 -1.921875 1.078125 -1.921875 C 1.179688 -1.921875 1.285156 -1.90625 1.390625 -1.875 C 1.492188 -1.84375 1.578125 -1.800781 1.640625 -1.75 Z M 1.640625 -1.484375 "/></g></g></g><g fill="#402978" fill-opacity="1"><g transform="translate(80.992617, 67.17594)"><g><path d="M 0.265625 -1.890625 L 0.75 -1.046875 L 1.234375 -1.890625 L 1.46875 -1.890625 L 0.859375 -0.8125 L 0.859375 0 L 0.640625 0 L 0.640625 -0.8125 L 0.015625 -1.890625 Z M 0.265625 -1.890625 "/></g></g></g></svg>